<?xml version="1.0" encoding="utf-8"?>
<!-- Generator: Adobe Illustrator 25.0.1, SVG Export Plug-In . SVG Version: 6.00 Build 0)  -->
<svg version="1.1" id="Layer_1" xmlns="http://www.w3.org/2000/svg" xmlns:xlink="http://www.w3.org/1999/xlink" x="0px" y="0px"
	 viewBox="0 0 500 500" style="enable-background:new 0 0 500 500;" xml:space="preserve">
<style type="text/css">
	.st0{fill:#CFE1EC;}
	.st1{fill:#6B391A;}
	.st2{fill:#D72626;}
	.st3{fill:#A9BECE;}
	.st4{fill:#EE5637;}
	.st5{fill:#F7BF9B;}
	.st6{fill:#F7D4BE;}
	.st7{fill:#FFFFFF;}
</style>
<g>
	<g>
		<ellipse class="st0" cx="250.72" cy="485.8" rx="85.5" ry="14.2"/>
	</g>
	<g>
		<path class="st1" d="M295.58,397.72l-4.87,4.33c0.08,0.09,7.8,8.96,4.76,16.06c-5.13,11.98-36.44,11.33-36.44,11.33
			c0.34,1.37,5.27,21.14,5.82,23.34c0.55,2.2,7.35-1.97,5.63-8c-0.78-2.74-2.53-6.09-4.2-8.94c19.9-1.39,31.44-6.38,35.2-15.19
			C306.11,409.74,296.01,398.21,295.58,397.72z"/>
	</g>
	<g>
		<path class="st1" d="M413.39,356.69c-0.39-1.23-1.7-1.91-2.93-1.52c-2.96,0.93-5.84,1.46-8.58,1.71c3.28-0.87,6.7-2.12,10.11-3.96
			c1.14-0.61,1.56-2.03,0.95-3.17c-0.61-1.14-2.03-1.56-3.17-0.95c-4.33,2.33-8.73,3.64-12.77,4.34c0.55-0.62,1.07-1.32,1.53-2.1
			c1.38-2.34,1.02-4.29,0.47-5.51c-1.98-4.39-9.41-6.04-10.88-6.32c-1.27-0.24-2.49,0.58-2.74,1.85c-0.25,1.27,0.58,2.49,1.85,2.74
			c2.7,0.53,6.81,2.09,7.51,3.65c0.07,0.15,0.21,0.47-0.23,1.21c-2.55,4.32-7.92,4.98-11.39,4.9c-1.41-0.16-2.41-0.34-2.86-0.43
			c-1.86-1.83-4.51-5.17-3.94-7.26c0.39-1.43,2.62-2.59,6.26-3.25c1.27-0.23,2.11-1.45,1.88-2.72c-0.23-1.27-1.45-2.11-2.72-1.88
			c-5.68,1.04-9.02,3.26-9.94,6.62c-1.45,5.32,4.14,10.9,5.73,12.36c-3.19,12.17-11,30.83-19.03,30.83
			c-8.91,0-13.82-19.85-14.83-26.81l-6.17,0.9c0.48,3.29,5.13,32.14,21,32.14c13.61,0,21.95-24.66,24.48-33.41
			c4.83,2.7,12.97,6.13,23.15,6.13c1.27,0,2.58-0.05,3.91-0.17c1.29-0.11,2.24-1.24,2.13-2.53s-1.24-2.24-2.53-2.13
			c-3.29,0.28-6.39,0.13-9.26-0.29c3.58-0.18,7.44-0.78,11.45-2.05C413.09,359.23,413.78,357.92,413.39,356.69z"/>
		<path class="st1" d="M89.5,356.69c0.39-1.23,1.7-1.91,2.93-1.52c2.96,0.93,5.84,1.46,8.58,1.71c-3.28-0.87-6.7-2.12-10.11-3.96
			c-1.14-0.61-1.56-2.03-0.95-3.17c0.61-1.14,2.03-1.56,3.17-0.95c4.33,2.33,8.73,3.64,12.77,4.34c-0.55-0.62-1.07-1.32-1.53-2.1
			c-1.38-2.34-1.02-4.29-0.47-5.51c1.98-4.39,9.41-6.04,10.88-6.32c1.27-0.24,2.49,0.58,2.74,1.85c0.25,1.27-0.58,2.49-1.85,2.74
			c-2.7,0.53-6.81,2.09-7.51,3.65c-0.07,0.15-0.21,0.47,0.23,1.21c2.55,4.32,7.92,4.98,11.39,4.9c1.41-0.16,2.41-0.34,2.86-0.43
			c1.86-1.83,4.51-5.17,3.94-7.26c-0.39-1.43-2.62-2.59-6.26-3.25c-1.27-0.23-2.11-1.45-1.88-2.72c0.23-1.27,1.45-2.11,2.72-1.88
			c5.68,1.04,9.02,3.26,9.94,6.62c1.45,5.32-4.14,10.9-5.73,12.36c3.19,12.17,11,30.83,19.03,30.83c8.91,0,13.82-19.85,14.83-26.81
			l6.17,0.9c-0.48,3.29-5.13,32.14-21,32.14c-13.62,0-21.95-24.66-24.48-33.41c-4.83,2.7-12.97,6.13-23.15,6.13
			c-1.27,0-2.58-0.05-3.91-0.17c-1.29-0.11-2.24-1.24-2.13-2.53c0.11-1.29,1.24-2.24,2.53-2.13c3.29,0.28,6.39,0.13,9.26-0.29
			c-3.58-0.18-7.44-0.78-11.45-2.05C89.8,359.23,89.11,357.92,89.5,356.69z"/>
	</g>
	<g>
		<path class="st1" d="M207.08,397.72l4.87,4.33c-0.08,0.09-7.8,8.96-4.76,16.06c5.13,11.98,36.44,11.33,36.44,11.33
			c-0.34,1.37-5.27,21.14-5.82,23.34c-0.55,2.2-7.35-1.97-5.63-8c0.78-2.74,2.53-6.09,4.2-8.94c-19.9-1.39-31.44-6.38-35.2-15.19
			C196.54,409.74,206.65,398.21,207.08,397.72z"/>
	</g>
	<g>
		<g>
			<path class="st2" d="M437.23,187.48c0,103.54-83.94,110.05-187.48,110.05S62.27,291.02,62.27,187.48S146.21,0,249.75,0
				S437.23,83.94,437.23,187.48z"/>
			<ellipse class="st3" cx="252.86" cy="242.6" rx="158.74" ry="48.96"/>
			
				<ellipse transform="matrix(0.2557 -0.9667 0.9667 0.2557 -13.332 238.2735)" class="st4" cx="148.08" cy="127.8" rx="29.24" ry="24.67"/>
			
				<ellipse transform="matrix(0.9608 -0.2771 0.2771 0.9608 -21.7531 80.375)" class="st4" cx="273.48" cy="117.15" rx="36.32" ry="39.99"/>
			
				<ellipse transform="matrix(0.1987 -0.9801 0.9801 0.1987 -113.4069 241.9005)" class="st4" cx="91.22" cy="190.3" rx="16.43" ry="12.09"/>
			
				<ellipse transform="matrix(0.9986 -0.0527 0.0527 0.9986 -1.1997 13.3557)" class="st4" cx="252.71" cy="29.43" rx="10.87" ry="8"/>
			
				<ellipse transform="matrix(0.7065 -0.7077 0.7077 0.7065 54.2011 270.2116)" class="st4" cx="352.86" cy="69.76" rx="17.05" ry="31.02"/>
			<path class="st4" d="M159.51,42.89c10.7-6.73,22.38-7.4,26.08-1.51c3.7,5.9-1.98,16.13-12.68,22.86
				c-10.7,6.73-22.38,7.4-26.08,1.5C143.12,59.86,148.8,49.62,159.51,42.89z"/>
			
				<ellipse transform="matrix(0.9742 -0.2256 0.2256 0.9742 -27.1123 94.3657)" class="st4" cx="399.31" cy="165.8" rx="15.1" ry="22.58"/>
		</g>
		<g>
			<path class="st5" d="M352.8,340.69c0,0-8.3-49.35-23.85-108.63c-28.32-26.03-125.76-25.02-158.43,0
				c-12.88,51.74-23.85,108.63-23.85,108.63C128.31,431.27,367.12,432.95,352.8,340.69z"/>
			<path class="st6" d="M145.67,351.23c1.48,77.12,205.22,78.02,207.71-1.25C325.21,405.52,173.8,405.16,145.67,351.23z"/>
		</g>
		<g>
			<path class="st7" d="M219.54,33.99c8.05,12.71-12.43,27.44-36.91,42.9c-24.47,15.46-43.67,25.8-51.72,13.1
				c-8.05-12.71,5.27-35.54,29.74-51.01C185.12,23.52,211.49,21.29,219.54,33.99z"/>
			
				<ellipse transform="matrix(0.4616 -0.8871 0.8871 0.4616 -50.7236 166.0122)" class="st7" cx="111.41" cy="124.79" rx="20.34" ry="16.73"/>
		</g>
	</g>
	<g>
		<g>
			<g>
				<path d="M176.12,320.4c5.21,1.3,10.08,1.75,14.33,1.75c9.38,0,15.7-2.17,15.88-2.23c1.74-0.6,2.81-3.07,2.38-5.52
					c-0.43-2.45-2.19-3.94-3.94-3.34l0,0l0,0c-0.19,0.06-5.94,1.97-14.33,1.96c-3.92,0-8.41-0.41-13.19-1.6
					c-1.77-0.44-3.46,1.21-3.77,3.69C173.17,317.59,174.35,319.96,176.12,320.4z"/>
				<path d="M265.95,356.94c-5.21-1-10.08-1.34-14.33-1.34c-9.38,0-15.7,1.66-15.88,1.71c-1.74,0.46-2.81,2.35-2.38,4.23
					c0.43,1.88,2.19,3.02,3.94,2.56l0,0l0,0c0.19-0.05,5.94-1.51,14.33-1.5c3.92,0,8.41,0.32,13.19,1.23
					c1.77,0.34,3.46-0.93,3.77-2.83C268.9,359.1,267.72,357.28,265.95,356.94z"/>
				<path d="M298.38,319.92L298.38,319.92c0.17,0.06,6.05,2.22,14.79,2.23c3.95,0,8.49-0.44,13.34-1.75
					c1.65-0.44,2.74-2.81,2.45-5.29s-1.87-4.13-3.51-3.69c-4.44,1.19-8.63,1.6-12.28,1.6c-4.03,0-7.41-0.5-9.76-1
					c-1.17-0.25-2.09-0.5-2.7-0.68c-0.31-0.09-0.54-0.17-0.69-0.21l-0.16-0.05l-0.03-0.01l0,0c-1.62-0.6-3.26,0.9-3.66,3.34
					C295.76,316.85,296.75,319.32,298.38,319.92z"/>
			</g>
		</g>
	</g>
</g>
</svg>
