<?xml version="1.0" encoding="utf-8"?>
<!-- Generator: Adobe Illustrator 25.0.1, SVG Export Plug-In . SVG Version: 6.00 Build 0)  -->
<svg version="1.1" id="Layer_1" xmlns="http://www.w3.org/2000/svg" xmlns:xlink="http://www.w3.org/1999/xlink" x="0px" y="0px"
	 viewBox="0 0 500 500" style="enable-background:new 0 0 500 500;" xml:space="preserve">
<g>
	<path d="M436.3,174.9L273.3,12.2C265.5,4.3,255.5,0,245.2,0S224.9,4.3,217,12.2L54.1,174.9c-12.6,12.6-13,31-7.7,43.7
		c5.3,13,16,20.6,28.3,20.6h119.9l-37.3,202.3c-2.8,14.5,1.1,29.3,10.5,40.5c9.4,11.3,23.3,17.8,37.9,17.8h78.8c9,0,17.7-2.5,25.2-7
		c-1.8-1.4-3.4-3.1-4.7-5.1c-0.7-1-1.2-2.1-1.6-3.2c-5.1,2.8-10.8,4.5-16.7,4.8c0.4-0.4,0.8-0.9,1.1-1.3c9.6-10.5,14.1-28.3,12-46.2
		l-8.7-74.9c-1.6,0.5-3.4,0.5-5.2,0l8.9,75.6c1.9,16.1-2.3,32.8-10.7,42.2c-1.9,1.9-3.8,3.6-5.6,4.7h-67c-2.1-1.1-3.9-2.8-5.6-4.7
		c-8.3-9.6-12.6-26.1-10.7-42.4l23.6-203.3h52.2l8.4,71.6c1.4-1.8,2.9-3.6,4.6-5.3l-7.7-66.5h9l10.1,54.4c2.6-2.8,5.5-5.5,8.9-7.3
		l-8.7-46.9h119.9c12.4,0,23.1-7.7,28.3-20.6C449.2,205.9,448.8,187.5,436.3,174.9z M74.6,229c-8.1,0-15.2-5.3-19-14.3
		c-3.8-9.6-3.6-23.3,5.4-32.5L224,19.5l0.6-0.6l-99.8,158.2c-9,14.3-7.9,37.2-0.9,49.5c0.4,0.8,0.8,1.5,1.3,2.3H74.6z M190.2,442.2
		c-2.1,17.8,2.6,35.5,12,46.2c0.4,0.6,0.8,0.9,1.1,1.3c-10.7-0.6-20.8-5.6-27.8-14.1c-7.5-9-10.5-20.8-8.4-32.3l37.7-204h9
		L190.2,442.2z M358.4,229.2H132c-1.5-1.3-2.6-3.2-3.6-4.7c-6-11.1-7.1-31.9,0.8-44.5L231.9,17.3c1.3-2.3,2.8-3.9,4.3-5.6
		c3-0.9,6-1.5,9-1.5c3,0,6,0.6,9,1.5c1.5,1.5,3,3.4,4.3,5.4l102.7,162.7c1.3,1.9,2.3,3.9,3,6h-0.3c0.1,0.2,0.2,0.5,0.3,0.7
		c0.1,0.1,0.2,0.3,0.3,0.5c0.9,1.2,1.4,2.8,1.3,4.4c2.3,11.6,0.6,25.1-3.8,33.1C361,226,359.9,227.9,358.4,229.2z M434.6,214.7
		c-3.8,9-10.9,14.3-19.1,14.5h-50.5c0.4-0.8,0.9-1.5,1.3-2.3c5.1-9,6.9-23.3,4.5-35.8h0.2c-0.1-0.6-0.2-1.1-0.2-1.7
		c0-0.1,0-0.2-0.1-0.2c-0.5-0.9-0.8-2-0.8-3.1h-0.6c-0.9-3.2-2.3-6.2-3.9-8.8L265.5,19l0.6,0.6l162.9,162.7c1.3,1.1,2.3,2.4,3.2,3.8
		H432c0.7,0.6,1.3,1.4,1.6,2.3c0.2,0.3,0.3,0.6,0.4,0.9c0.8,1,1.2,2.2,1.3,3.5C438,200.1,437.2,208.4,434.6,214.7z"/>
	<path d="M240.1,85.4c0-11.4-7.9-20.8-17.5-20.8c-9.6,0-17.5,9.4-17.5,20.8s7.9,20.8,17.5,20.8C232.4,106.2,240.3,96.8,240.1,85.4z
		 M235.1,85.4c0,8.6-5.4,15.8-12.4,15.8c-6.8,0-12.4-7.1-12.4-15.8c0-8.6,5.4-15.8,12.4-15.8C229.6,69.6,235.2,76.8,235.1,85.4z"/>
	<path d="M258.9,121.8c0,13.7,6.8,24.2,15.6,24.2c8.8,0,15.6-10.7,15.6-24.2c0-13.7-6.9-24.2-15.6-24.2
		C265.8,97.6,259.1,108.1,258.9,121.8z M264.1,121.8c0-10.3,4.7-19,10.3-19c5.6,0,10.3,8.6,10.3,19s-4.7,19-10.3,19
		C268.8,140.8,264.1,131.9,264.1,121.8z"/>
	<path d="M205.8,145.1c0-7.3-5.4-13.1-12.2-13.1s-12.2,6-12.2,13.1c0,7.3,5.4,13.1,12.2,13.1S205.8,152.4,205.8,145.1z M200.7,145.3
		c0,4.5-3.2,8.1-7.1,8.1c-3.9,0-7.1-3.6-7.1-8.1s3.2-8.1,7.1-8.1C197.5,137.2,200.7,140.8,200.7,145.3z"/>
</g>
<g>
	<path d="M435.7,338.7l-81-80.9c-3.9-3.9-8.9-6.1-14-6.1c-5.1,0-10.1,2.1-14,6.1l-81,80.9c-6.2,6.2-6.4,15.4-3.8,21.7
		c2.6,6.4,7.9,10.3,14.1,10.3h59.6l-18.6,100.5c-1.3,7.2,0.6,14.5,5.2,20.1s11.6,8.9,18.8,8.9h39.2c7.3,0,14.2-3.3,18.8-8.9
		s6.6-13,5.2-20.1l-18.6-100.5h59.6c6.2,0,11.5-3.8,14.1-10.3C442.1,354.1,441.9,344.9,435.7,338.7z M256.2,365.6
		c-4.1-0.1-7.6-2.7-9.5-7.2c-1.4-3.4-1.8-7.8-0.1-11.8h0.3c0.3-0.9,0.7-1.8,1.3-2.5h-0.2c0.5-0.7,0.9-1.3,1.6-1.9l81-80.9l0.3-0.3
		l-49.6,78.6c-0.8,1.3-1.5,2.8-2,4.4H279c0,0.1,0,0.2-0.1,0.3c-0.1,0.2-0.2,0.5-0.2,0.7c0,0.1,0,0.2,0,0.3c-0.1,0.4-0.2,0.8-0.4,1.2
		h0.1c-1.2,6.2-0.3,13.3,2.2,17.8c0.2,0.4,0.5,0.7,0.7,1.1H256.2z M306.2,488c-3.7-4.5-5.2-10.3-4.2-16l18.7-101.4h4.5l-11.8,100.8
		c-1,8.9,1.2,17.7,6,22.9c0.2,0.2,0.4,0.5,0.6,0.7C314.7,494.7,309.7,492.2,306.2,488z M360.2,492.7c-0.8,0.9-1.8,1.8-2.8,2.3h-33.3
		c-0.9-0.6-1.9-1.4-2.8-2.3c-4.2-4.7-6.2-13-5.3-21l11.8-101.1h25.9l11.8,101C366.5,479.8,364.3,488,360.2,492.7z M379.5,472
		c1,5.7-0.5,11.6-4.2,16c-3.5,4.2-8.5,6.7-13.8,7c0.2-0.2,0.4-0.4,0.6-0.7c4.7-5.3,7-14.1,6-22.9l-11.8-100.8h4.5L379.5,472z
		 M397,365.6H284.5c-0.7-0.7-1.3-1.6-1.8-2.3c-2.2-4-3.1-10.7-1.9-16.5c0-1.1,0.3-2.2,0.9-3.2c0.3-0.9,0.8-1.8,1.3-2.6l51-80.9
		c0.7-1,1.4-2,2.1-2.7c1.5-0.5,3-0.7,4.5-0.7c1.5,0,3,0.3,4.5,0.7c0.7,0.8,1.5,1.7,2.1,2.8l51,80.9c3.9,6.2,3.4,16.6,0.4,22.1
		C398.3,364,397.7,365,397,365.6z M434.9,358.4c-1.9,4.5-5.4,7.1-9.4,7.1h-25.1c0.3-0.4,0.5-0.7,0.7-1.1c3.5-6.2,4-17.5-0.5-24.6
		L351,261.2c0.1,0.1,0.2,0.2,0.3,0.3l81,80.9C436.7,346.9,436.8,353.7,434.9,358.4z"/>
	<path d="M351.9,304.5c4.8,0,8.7-4.7,8.7-10.4c0-5.7-3.9-10.4-8.7-10.4c-4.8,0-8.7,4.7-8.7,10.4
		C343.2,299.9,347.1,304.5,351.9,304.5z M351.9,286.3c3.5,0,6.2,3.5,6.2,7.8c0,4.3-2.8,7.8-6.2,7.8c-3.5,0-6.2-3.5-6.2-7.8
		C345.7,289.9,348.5,286.3,351.9,286.3z"/>
	<path d="M326.2,300.2c-4.3,0-7.7,5.2-7.7,12c0,6.7,3.4,12,7.7,12c4.4,0,7.7-5.2,7.7-12C333.8,305.5,330.5,300.2,326.2,300.2z
		 M326.2,321.7c-2.8,0-5.1-4.3-5.1-9.4c0-5.1,2.3-9.4,5.1-9.4c2.8,0,5.1,4.3,5.1,9.4C331.3,317.3,329,321.7,326.2,321.7z"/>
	<path d="M366.4,330.4c3.4,0,6.1-2.9,6.1-6.5c0-3.5-2.7-6.5-6.1-6.5s-6.1,2.9-6.1,6.5C360.3,327.5,363,330.4,366.4,330.4z
		 M366.4,319.9c2,0,3.5,1.8,3.5,4s-1.6,4-3.5,4s-3.5-1.8-3.5-4S364.4,319.9,366.4,319.9z"/>
</g>
</svg>
